<svg version="1.1" xmlns="http://www.w3.org/2000/svg" xmlns:xlink="http://www.w3.org/1999/xlink" x="0px" y="0px"
	 viewBox="0 0 198 58" style="enable-background:new 0 0 198 58;" xml:space="preserve">
<style type="text/css">
	.st0{stroke:#000000;stroke-width:8;}
	.st1{fill:none;stroke:#000000;stroke-width:8;}
	.st2{font-family:'HYYanKaiW';}
	.st3{font-size:48px;}
	.st4{fill:#FFFFFF;}
	.st5{font-family:'MicrosoftYaHei';}
	.st6{font-size:21px;}
</style>
<path d="M68.5,0h104.9C185.4,0,195,3.6,195,8v42c0,4.4-9.6,8-21.5,8H68.5C56.6,58,47,54.4,47,50V8C47,3.6,56.6,0,68.5,0z"/>
<g>
	<path class="st0" d="M135.5,54c4.4,0.3,8.2-3.1,8.5-7.5c0-0.3,0-0.7,0-1"/>
	<path class="st1" d="M12,4h174c4.4,0,8,3.6,8,8v34c0,4.4-3.6,8-8,8H12c-4.4,0-8-3.6-8-8V12C4,7.6,7.6,4,12,4z"/>
</g>
<text transform="matrix(1 0 0 1 15.25 45.5)" class="st2 st3">3</text>
<text transform="matrix(1 0 0 1 60.75 23.5)"><tspan x="0" y="0" class="st4 st5 st6">Program</tspan><tspan x="0" y="25.2" class="st4 st5 st6">Translation</tspan></text>
</svg>
